Patient4_TMGait_0pt5_02_left_02_EMG.mot
version=1
nRows=20
nColumns=33
inDegrees=no
endheader
time	1LAddLong	2LGlutMax	3LGlutMed	4LIliopsoas	5LSemiMemb	6LBicFemLong	7LRecFem	8LVastMed	9LVastLat	10LGasMed	11LTibAnt	12lTibPost	13LPeroneusLong	14LSol	15LExtDigLong	16LFlexDigLong	17RAddLong	18RGlutMax	19RGlutMed	20RIliopsoas	21RSemiMemb	22RBicFemLong	23RRecFem	24RVastMed	25RVastLat	26RGasMed	27RTibAnt	28RTibPost	29RPeroneusLong	30RSol	31RExtDigLong	32RFlexDigLong
2.342	0.035248	0.38895	-0.32562	0.002441	-0.006256	0.020752	-0.092468	0.01236	0.20264	0.088196	0.030518	0.007477	0.014343	0.078735	0.10574	0.031128	-0.04776	-0.24445	-0.27939	0.044556	-0.041046	0.008392	0.48767	-0.10361	-0.014801	0.003204	0.057983	-0.003815	-0.21713	0.082397	-0.004578	-0.000305
2.343	0.032654	0.27496	-0.31708	-0.001678	0.001831	-0.001678	-0.13962	0.014801	0.030518	0.14542	-0.029602	0.010834	0.036621	0.00824	0.081787	0.051575	-0.063171	-0.28381	-0.22369	0.068054	-0.051422	-0.013123	0.51376	-0.10666	-0.018158	0.010986	0.027771	-0.002594	-0.1593	0.058899	-0.005341	-0.003357
2.344	0.015259	0.15366	-0.27817	0.009003	-0.042877	0.036011	-0.21927	0.007477	-0.15976	0.13092	-0.023041	0.014191	0.007629	-0.14252	0.067444	-0.021515	-0.10025	-0.29999	-0.27252	0.073242	-0.079346	0.065002	0.45502	-0.095825	-0.024567	0.016632	0.028839	-0.000305	-0.12131	0.049286	-0.004272	-0.000916
2.345	-0.005646	0.15076	-0.18646	0.005035	-0.070801	0.076294	-0.20538	0.000763	-0.13412	0.10681	-0.012665	0.0177	-0.021362	-0.18051	0.052338	-0.35156	-0.061798	-0.25589	-0.38238	0.030518	-0.078735	0.11963	0.45441	-0.12817	-0.009766	0.013123	0.02594	-0.005798	0.010986	0.012512	-0.001221	-0.002441
2.346	-0.021057	0.22537	-0.20767	0.007172	-0.10712	0.019836	-0.19486	0.036621	-0.12375	0.071869	-0.004425	0.013733	-0.008545	-0.29266	0.03418	0.065918	-0.029144	-0.27023	-0.33127	0.015106	-0.050964	0.14908	0.41596	-0.12131	-0.011139	0.004578	0.019073	-0.007019	0.12314	0.003357	-0.00061	-0.00885
2.347	-0.018463	0.30426	-0.22659	-0.005493	-0.12756	-0.037994	-0.24826	0.048828	-0.07843	0.017853	0.005035	0.015259	-0.006561	-0.21133	0.016937	-0.13611	-0.009003	-0.25909	-0.20416	-0.08255	-0.048523	0.13779	0.37369	-0.15656	0.015259	0.001068	0.045624	0.000305	0.16235	-0.008545	-0.005035	-0.007782
2.348	0.007935	0.34836	-0.30991	-0.004578	-0.11368	-0.025024	-0.32913	0.032806	-0.020905	0.010681	0.006256	0.022888	0.022278	-0.23651	-0.004425	0.29388	-0.001831	-0.24246	-0.24292	-0.054932	-0.040741	0.1001	0.35873	-0.12772	0.014801	0.010071	0.11047	0.001221	0.13046	-0.032043	-0.005493	-0.002136
2.349	0.023499	0.40573	-0.29511	-0.00412	0.003967	0.043793	-0.26642	0.01358	-0.040283	-0.007935	0.016785	0.023193	0.030518	-0.037994	0.016174	0.13962	0.002747	-0.21332	-0.3122	-0.085144	-0.041809	0.084076	0.36453	-0.12863	0.00946	0.001221	0.18875	0.002441	0.10483	-0.073547	-0.00351	-0.007019
2.35	0.033417	0.47714	-0.19196	-0.004272	0.11383	0.032349	-0.27542	-0.005188	-0.030975	-0.066223	0.012665	0.022888	-0.00061	0.11566	0.032654	-0.011597	-0.032349	-0.20493	-0.28641	-0.051575	-0.042725	0.057373	0.37811	-0.069885	0.010376	-0.004578	0.18036	-0.000153	0.11505	-0.099792	-0.000916	-0.001831
2.351	0.028839	0.5397	-0.19486	0.001068	0.11612	0.063629	-0.2861	-0.019836	-0.02533	-0.076752	0.019073	0.018616	-0.019379	0.18982	0.028534	0.32074	-0.035095	-0.14664	-0.3273	-0.021362	-0.014343	0	0.42709	-0.080109	0.006256	-0.00351	0.074005	-0.005341	0.056915	-0.076904	-0.003052	-0.002747
2.352	0.021515	0.63843	0.028076	0.005951	0.1149	0.078888	-0.33814	-0.002289	-0.023651	-0.050507	0.010223	0.014801	-0.00351	0.14801	0.042114	0.042267	-0.016937	-0.11032	-0.31479	-0.020142	0.036163	-0.020142	0.39673	-0.026093	0.005341	0.01236	-0.084839	-0.000916	0.1004	-0.10773	-0.009155	-0.000916
2.353	0.016327	0.80749	0.055695	0.008698	0.089264	0.095978	-0.46097	0.003815	0.079956	-0.078735	0.016174	0.012665	0.00061	0.072174	0.022125	-0.56915	-0.008087	-0.12177	-0.25101	0.011902	0.092926	0.080414	0.44159	0.001984	-0.000763	0.002747	-0.022125	0.001221	0.14053	-0.12131	-0.003357	-0.002441
2.354	0.025177	0.94086	0.10788	-0.00351	0.023956	0.016937	-0.65948	0.01297	0.18539	-0.10681	0.00946	0.011139	-0.007477	-0.016479	0.009918	0.23941	0.036011	-0.13886	-0.25452	0.00824	0.093079	0.16953	0.42602	0.088196	0.013123	0.000153	0.1619	-0.002594	0.053253	-0.1416	-0.00412	-0.007324
2.355	0.030365	1.02	-0.039063	-0.001373	-0.054016	-0.003357	-0.69656	0.02655	0.25177	-0.10819	0.015106	0.012207	-0.031128	-0.05188	0.00885	-0.10025	0.078735	-0.17731	-0.24185	-0.010986	0.036011	0.14069	0.4155	0.054932	0.003967	0.000305	0.35278	-0.003204	-0.003204	-0.10635	-0.002136	-0.007782
2.356	0.033875	1.0936	-0.042267	-0.004883	-0.057678	-0.033417	-0.54688	0.029602	0.31006	-0.065308	0.016632	0.027924	0.00885	0.064087	-0.009003	0.62607	0.063629	-0.16144	-0.2887	0.016022	0.016937	0.092621	0.38025	0.059967	0.000763	-0.001526	0.14648	-0.001678	-0.003967	-0.13489	-0.005188	-0.002289
2.357	0.015869	1.0402	-0.030365	-0.004578	-0.002594	0.014648	-0.48065	0.046082	0.19836	-0.035553	0.009155	0.036621	0.072784	0.27786	0.00473	0.25696	0.025024	-0.21683	-0.29098	0.016022	0.020905	0.024872	0.39902	0.046692	-0.004425	0.002747	-0.29999	-0.001373	0.001984	-0.16357	-0.003815	-0.001678
2.358	0.001068	1.0556	0.031281	0.006866	-0.007935	0.11993	-0.40482	0.028534	0.038605	0.10712	-0.001373	0.046844	0.082703	0.24124	0.019226	0.035095	-0.013123	-0.26093	-0.31586	-0.015106	0.01297	-0.051727	0.40726	0.010529	-0.009308	0.007477	-0.40405	0.003357	0.023651	-0.23392	-0.00351	0.005646
2.359	-0.005341	1.0867	0.18112	0.00946	-0.020142	0.063477	-0.32883	0.004883	-0.14572	0.22858	0.003052	0.036621	0.066833	0.089722	0.021973	-0.17471	-0.029755	-0.242	-0.23987	-0.008392	0.017395	-0.071564	0.38223	0.019531	0.002441	0.007324	-0.22888	-0.001373	0.083771	-0.28625	-0.003967	0.000305
2.36	-0.000763	1.0445	0.18982	0.003204	-0.020447	-0.010986	-0.19241	-0.030823	-0.23743	0.3006	0.014038	0.09079	0.045166	0.024567	0.02655	-0.14893	-0.01358	-0.31357	-0.2063	-0.022888	0.005341	-0.12894	0.34897	0.010223	0.009003	-0.003052	0.68558	-0.002594	-0.10391	-0.25513	0.000153	-0.011597
2.361	-0.010529	0.99869	0.21042	0.010834	-0.030365	-0.034027	-0.12375	-0.022278	-0.063629	0.32944	0.005798	0.063629	0.04364	-0.10834	0.008545	-0.13489	-0.016327	-0.31403	-0.33341	0.002289	-0.015106	-0.16419	0.33783	-0.007477	0.010376	0.000763	1.1211	-0.00351	-0.11917	-0.2179	-0.000916	-0.012512
